<?xml version="1.0" standalone="no"?>
<!DOCTYPE svg PUBLIC "-//W3C//DTD SVG 20010904//EN"
 "http://www.w3.org/TR/2001/REC-SVG-20010904/DTD/svg10.dtd">
<svg version="1.0" xmlns="http://www.w3.org/2000/svg"
 width="250.000000pt" height="250.000000pt" viewBox="0 0 250.000000 250.000000"
 preserveAspectRatio="xMidYMid meet">
<metadata>
Created by potrace 1.11, written by Peter Selinger 2001-2013
</metadata>
<g transform="translate(0.000000,250.000000) scale(0.100000,-0.100000)"
fill="#000000" stroke="none">
<path d="M0 1250 l0 -1250 1250 0 1250 0 0 1250 0 1250 -1250 0 -1250 0 0
-1250z m930 576 c0 -57 2 -56 -186 -56 l-174 0 0 -140 0 -140 155 0 155 0 0
-40 0 -40 -155 0 -155 0 0 -150 0 -150 185 0 185 0 0 -40 0 -40 -235 0 -235 0
0 410 0 410 230 0 230 0 0 -24z m333 -283 c38 -62 72 -111 76 -109 3 2 38 54
76 115 l69 111 53 0 c29 0 53 -2 53 -5 0 -2 -43 -65 -95 -140 -52 -75 -95
-141 -95 -146 0 -6 50 -82 110 -170 61 -87 110 -161 110 -164 0 -3 -26 -5 -58
-5 -55 0 -59 2 -77 33 -10 17 -49 79 -86 136 l-68 104 -88 -136 -88 -137 -52
0 c-29 0 -53 2 -53 4 0 3 50 75 110 162 61 86 110 161 110 167 0 5 -43 72 -95
148 -52 76 -95 141 -95 144 0 4 26 5 57 3 l57 -3 69 -112z"/>
</g>
</svg>
